<?xml version="1.0" standalone="no"?><!DOCTYPE svg PUBLIC "-//W3C//DTD SVG 1.1//EN" "http://www.w3.org/Graphics/SVG/1.1/DTD/svg11.dtd"><svg class="icon" width="48px" height="48.00px" viewBox="0 0 1024 1024" version="1.1" xmlns="http://www.w3.org/2000/svg"><path d="M511.94 0C230.353 0 0 230.404 0 511.94c0 281.538 230.353 511.94 511.94 511.94 281.535 0 511.94-230.402 511.94-511.94C1023.881 230.404 793.476 0 511.94 0z m230.353 604.702c-9.606 0-16.011-3.202-22.415-9.556l-175.969-179.17v415.926c0 15.961-12.757 31.972-31.969 31.972-16.011 0-32.021-12.809-32.021-31.972V419.178L303.95 595.146c-6.352 6.354-12.756 9.556-22.363 9.556-16.01 0-32.021-12.758-32.021-31.971 0-9.606 3.202-16.011 9.606-22.415l230.354-230.353c6.404-6.404 12.809-9.606 22.415-9.606s16.011 3.202 22.414 9.606l230.354 230.353c6.404 6.404 9.606 12.809 9.606 22.415-0.001 19.213-12.808 31.971-32.022 31.971z m32.021-323.115H249.566c-16.011 0-31.972-12.809-31.972-32.021 0-15.96 12.759-31.971 31.972-31.971h521.546c15.958 0 31.969 12.809 31.969 31.971 0 19.212-12.809 32.021-28.767 32.021z" fill="#ea986c" /></svg>