<?xml version="1.0" standalone="no"?><!DOCTYPE svg PUBLIC "-//W3C//DTD SVG 1.1//EN" "http://www.w3.org/Graphics/SVG/1.1/DTD/svg11.dtd"><svg class="icon" width="48px" height="48.00px" viewBox="0 0 1024 1024" version="1.1" xmlns="http://www.w3.org/2000/svg"><path d="M851.766 874.543h-683.135c-74.608 0-126.491-51.884-126.491-126.491v-506.167c0-74.608 51.884-126.491 126.491-126.491h683.135c74.608 0 126.491 51.884 126.491 126.491v506.167c0 74.608-51.884 126.491-126.491 126.491zM84.17 263.805v53.893h168.722l-81.849-154.043c-52.486 0-86.874 39.818-86.874 100.147zM232.581 157.622l84.26 160.275h141.775l-84.26-160.275h-141.775zM438.508 157.622l84.463 160.275h121.463l-84.463-160.275h-121.463zM624.123 157.622l84.26 160.275h121.463l-84.26-160.275h-121.463zM936.228 263.805c0-74.608-44.24-106.181-126.491-106.181l84.26 160.275h42.23v-54.096zM936.228 359.931h-852.059v366c0 74.608 31.773 106.181 106.181 106.181h639.498c74.608 0 106.181-31.773 106.181-106.181v-366h0.202zM667.561 600.846l-242.324 131.117c-13.072 7.041-29.161-2.411-29.161-17.295v-262.234c0-14.88 16.090-24.532 29.161-17.295l242.324 131.117c13.876 7.441 13.876 27.149 0 34.59z" fill="#ffffff" /></svg>